<?xml version="1.0"?>
<svg xmlns="http://www.w3.org/2000/svg" xmlns:xlink="http://www.w3.org/1999/xlink" xmlns:svgjs="http://svgjs.com/svgjs" version="1.1" width="512" height="512" x="0" y="0" viewBox="0 0 512 512" style="enable-background:new 0 0 512 512" xml:space="preserve" class=""><g><g xmlns="http://www.w3.org/2000/svg"><path d="m321 241v-82c-15.711 0-114.185 0-130 0v82z" fill="#ebe5e5" data-original="#000000" style="" class=""/><path d="m241 353v-82c-20.922 0-135.892 0-160 0v82z" fill="#ebe5e5" data-original="#000000" style="" class=""/><path d="m321 383c-15.711 0-114.185 0-130 0v112h130c0-23.331 0-88.433 0-112z" fill="#ebe5e5" data-original="#000000" style="" class=""/><path d="m161 241v-82c-7.258 0-153.697 0-161 0v82z" fill="#ebe5e5" data-original="#000000" style="" class=""/><path d="m512 241v-82h-161v82z" fill="#ebe5e5" data-original="#000000" style="" class=""/><path d="m431 353v-82c-25.433 0-139.624 0-160 0v82z" fill="#ebe5e5" data-original="#000000" style="" class=""/><path d="m351 383v112h146c8.284 0 15-6.716 15-15v-97c-20.442 0-144.936 0-161 0z" fill="#ebe5e5" data-original="#000000" style="" class=""/><path d="m161 383c-20.435 0-148.415 0-161 0v97c0 8.284 6.716 15 15 15h146c0-23.331 0-88.433 0-112z" fill="#ebe5e5" data-original="#000000" style="" class=""/><path d="m271 129v-97c0-8.284-6.716-15-15-15h-160c-8.284 0-15 6.716-15 15v97z" fill="#ebe5e5" data-original="#000000" style="" class=""/></g></g></svg>
