<?xml version="1.0"?>
<svg xmlns="http://www.w3.org/2000/svg" xmlns:xlink="http://www.w3.org/1999/xlink" xmlns:svgjs="http://svgjs.com/svgjs" version="1.1" width="512" height="512" x="0" y="0" viewBox="0 0 512.001 512.001" style="enable-background:new 0 0 512 512" xml:space="preserve" class=""><g>
<g xmlns="http://www.w3.org/2000/svg">
	<g>
		<path d="M491.965,451.588c-16.652-34.592-41.255-65.711-71.146-89.995c-28.7-23.316-62.52-40.485-98.133-49.898l-13.371-105.881    c-0.536-4.243-4.138-7.429-8.415-7.443l-35.96-0.116V65.565c33.296-2.92,62.397-22.791,77.237-53.34    c1.281-2.636,1.115-5.747-0.441-8.232C340.182,1.509,337.456,0,334.525,0H178.283c-2.93,0-5.655,1.507-7.211,3.992    c-1.556,2.484-1.724,5.593-0.444,8.23c14.587,30.073,44.317,50.326,77.296,53.33V198.2l-35.183-0.113h-0.028    c-4.265,0-7.873,3.158-8.433,7.388L190.225,311.29c-35.664,9.176-69.589,26.126-98.441,49.26    c-30.046,24.09-54.846,55.047-71.723,89.527c-1.289,2.633-1.132,5.743,0.416,8.233c1.549,2.49,4.268,4.007,7.198,4.017    l145.321,0.465c16.662,30.048,48.85,49.209,83.41,49.209c34.873,0,66.238-18.527,83.11-48.677l144.757,0.464h0.028    c2.921,0,5.638-1.499,7.197-3.969C493.06,457.339,493.237,454.229,491.965,451.588z M193.275,17.017h126.252    c-14.582,19.963-37.702,31.909-63.122,31.92C230.976,48.937,207.848,36.99,193.275,17.017z M220.164,215.128l73.205,0.235    l11.659,92.336c-15.93-3.032-32.201-4.62-48.537-4.678c-16.359-0.033-32.633,1.441-48.586,4.379L220.164,215.128z     M256.405,494.983c-25.423,0-48.55-11.946-63.129-31.92h64.86l61.227,0.196C304.769,483.109,281.708,494.983,256.405,494.983z     M41.759,445.355c15.383-27.343,36.16-51.876,60.67-71.529c28.421-22.789,62.099-39.174,97.403-47.387    c18.447-4.314,37.521-6.434,56.598-6.398c19.121,0.067,38.148,2.336,56.557,6.743c35.251,8.446,68.829,25.05,97.102,48.018    c24.385,19.81,45.005,44.481,60.21,71.926L41.759,445.355z" fill="#ffffff" data-original="#000000" style=""/>
	</g>
</g>
<g xmlns="http://www.w3.org/2000/svg">
</g>
<g xmlns="http://www.w3.org/2000/svg">
</g>
<g xmlns="http://www.w3.org/2000/svg">
</g>
<g xmlns="http://www.w3.org/2000/svg">
</g>
<g xmlns="http://www.w3.org/2000/svg">
</g>
<g xmlns="http://www.w3.org/2000/svg">
</g>
<g xmlns="http://www.w3.org/2000/svg">
</g>
<g xmlns="http://www.w3.org/2000/svg">
</g>
<g xmlns="http://www.w3.org/2000/svg">
</g>
<g xmlns="http://www.w3.org/2000/svg">
</g>
<g xmlns="http://www.w3.org/2000/svg">
</g>
<g xmlns="http://www.w3.org/2000/svg">
</g>
<g xmlns="http://www.w3.org/2000/svg">
</g>
<g xmlns="http://www.w3.org/2000/svg">
</g>
<g xmlns="http://www.w3.org/2000/svg">
</g>
</g></svg>
