<?xml version="1.0"?>
<svg xmlns="http://www.w3.org/2000/svg" xmlns:xlink="http://www.w3.org/1999/xlink" xmlns:svgjs="http://svgjs.com/svgjs" version="1.1" width="512" height="512" x="0" y="0" viewBox="0 0 512.001 512.001" style="enable-background:new 0 0 512 512" xml:space="preserve" class=""><g>
<g xmlns="http://www.w3.org/2000/svg">
	<g>
		<path d="M152.426,197.729h-11.093c-5.523,0-10,4.477-10,10s4.477,10,10,10h11.093c5.523,0,10-4.477,10-10    S157.949,197.729,152.426,197.729z" fill="#000000" data-original="#000000" style=""/>
	</g>
</g>
<g xmlns="http://www.w3.org/2000/svg">
	<g>
		<path d="M199.449,197.729h-11.093c-5.523,0-10,4.477-10,10s4.477,10,10,10h11.093c5.523,0,10-4.477,10-10    S204.972,197.729,199.449,197.729z" fill="#000000" data-original="#000000" style=""/>
	</g>
</g>
<g xmlns="http://www.w3.org/2000/svg">
	<g>
		<path d="M170.391,215.694c-5.523,0-10,4.477-10,10v11.093c0,5.523,4.477,10,10,10c5.523,0,10-4.477,10-10v-11.093    C180.391,220.171,175.914,215.694,170.391,215.694z" fill="#000000" data-original="#000000" style=""/>
	</g>
</g>
<g xmlns="http://www.w3.org/2000/svg">
	<g>
		<path d="M170.391,168.671c-5.523,0-10,4.477-10,10v11.093c0,5.523,4.477,10,10,10c5.523,0,10-4.477,10-10v-11.093    C180.391,173.148,175.914,168.671,170.391,168.671z" fill="#000000" data-original="#000000" style=""/>
	</g>
</g>
<g xmlns="http://www.w3.org/2000/svg">
	<g>
		<path d="M323.788,333.373l-7.627,6.468l7.547-6.563c-3.555-4.222-9.841-4.744-14.066-1.191c-4.225,3.552-4.754,9.877-1.206,14.105    l0.131,0.155c1.976,2.318,4.779,3.507,7.601,3.507c2.291,0,4.595-0.785,6.479-2.386    C326.851,343.894,327.357,337.581,323.788,333.373z" fill="#000000" data-original="#000000" style=""/>
	</g>
</g>
<g xmlns="http://www.w3.org/2000/svg">
	<g>
		<path d="M444.171,253.367L365.947,6.974C364.628,2.821,360.772,0,356.416,0H155.584c-4.357,0-8.213,2.821-9.531,6.974    L67.829,253.367c-1.335,4.204,0.215,8.942,4.208,11.505c1.64,1.053,3.588,1.521,5.537,1.521h21.674v26.716    c0,5.354,4.038,10.051,9.382,10.372c5.803,0.349,10.618-4.254,10.618-9.981v-27.107h92.584    c-1.508,25.83-10.308,49.997-24.706,67.24c-20.906,25.036-32.896,60.751-32.896,97.987c0,26.898,6.095,52.801,17.626,74.919    c1.743,3.342,5.175,5.462,8.944,5.462h149.529c3.769,0,7.202-2.12,8.944-5.462c11.531-22.117,17.626-48.021,17.626-74.919    c0-22.894-4.5-45.452-13.012-65.235c-2.271-5.279-8.546-7.602-13.75-4.946c-4.757,2.428-6.556,8.312-4.461,13.225    c7.343,17.218,11.223,36.902,11.223,56.956c0,21.544-4.392,42.275-12.745,60.349c-0.009,0.019-0.028,0.031-0.049,0.031H187.024    c-0.021,0-0.04-0.012-0.049-0.031c-8.354-18.076-12.745-38.804-12.745-60.349c0-32.627,10.296-63.669,28.248-85.167    c17.314-20.734,27.834-49.537,29.406-80.009c0.001-0.028,0.025-0.05,0.053-0.05h46.766c0.028,0,0.051,0.022,0.053,0.05    c0.936,16.794,4.596,33.268,10.724,48.103c2.109,5.105,7.956,7.532,13.061,5.425c5.104-2.109,7.533-7.956,5.425-13.061    c-5.15-12.466-8.269-26.326-9.169-40.517H434.43c1.949,0,3.897-0.468,5.537-1.521    C443.957,262.309,445.506,257.572,444.171,253.367z M420.901,246.393H288.46h-66.318H91.099c-0.036,0-0.062-0.035-0.051-0.07    L162.89,20.037c0.007-0.022,0.028-0.037,0.051-0.037H349.06c0.023,0,0.044,0.015,0.051,0.037l71.841,226.286    C420.962,246.358,420.937,246.393,420.901,246.393z" fill="#000000" data-original="#000000" style=""/>
	</g>
</g>
<g xmlns="http://www.w3.org/2000/svg">
	<g>
		<path d="M109.247,315.567c-16.542,0-30,13.458-30,30s13.458,30,30,30s30-13.458,30-30S125.789,315.567,109.247,315.567z     M109.247,355.567c-5.514,0-10-4.486-10-10c0-5.514,4.486-10,10-10s10,4.486,10,10    C119.247,351.081,114.761,355.567,109.247,355.567z" fill="#000000" data-original="#000000" style=""/>
	</g>
</g>
<g xmlns="http://www.w3.org/2000/svg">
	<g>
		<path d="M322.772,27.382H311.68c-5.523,0-10,4.477-10,10c0,5.523,4.477,10,10,10h11.092c5.523,0,10-4.477,10-10    C332.772,31.859,328.295,27.382,322.772,27.382z" fill="#000000" data-original="#000000" style=""/>
	</g>
</g>
<g xmlns="http://www.w3.org/2000/svg">
	<g>
		<path d="M340.738,45.348c-5.523,0-10,4.477-10,10V66.44c0,5.523,4.477,10,10,10c5.523,0,10-4.477,10-10V55.348    C350.738,49.825,346.261,45.348,340.738,45.348z" fill="#000000" data-original="#000000" style=""/>
	</g>
</g>
<g xmlns="http://www.w3.org/2000/svg">
	<g>
		<path d="M199.449,27.382h-11.093c-5.523,0-10,4.477-10,10c0,5.523,4.477,10,10,10h11.093c5.523,0,10-4.477,10-10    C209.449,31.859,204.972,27.382,199.449,27.382z" fill="#000000" data-original="#000000" style=""/>
	</g>
</g>
<g xmlns="http://www.w3.org/2000/svg">
	<g>
		<path d="M170.391,45.348c-5.523,0-10,4.477-10,10V66.44c0,5.523,4.477,10,10,10c5.523,0,10-4.477,10-10V55.348    C180.391,49.825,175.914,45.348,170.391,45.348z" fill="#000000" data-original="#000000" style=""/>
	</g>
</g>
<g xmlns="http://www.w3.org/2000/svg">
	<g>
		<path d="M237.599,112.556h-11.093c-5.523,0-10,4.477-10,10c0,5.523,4.477,10,10,10h11.093c5.523,0,10-4.477,10-10    C247.599,117.033,243.122,112.556,237.599,112.556z" fill="#000000" data-original="#000000" style=""/>
	</g>
</g>
<g xmlns="http://www.w3.org/2000/svg">
	<g>
		<path d="M284.622,112.556h-11.093c-5.523,0-10,4.477-10,10c0,5.523,4.477,10,10,10h11.093c5.523,0,10-4.477,10-10    C294.622,117.033,290.145,112.556,284.622,112.556z" fill="#000000" data-original="#000000" style=""/>
	</g>
</g>
<g xmlns="http://www.w3.org/2000/svg">
	<g>
		<path d="M255.564,130.521c-5.523,0-10,4.477-10,10v11.093c0,5.523,4.477,10,10,10c5.523,0,10-4.477,10-10v-11.093    C265.564,134.998,261.087,130.521,255.564,130.521z" fill="#000000" data-original="#000000" style=""/>
	</g>
</g>
<g xmlns="http://www.w3.org/2000/svg">
	<g>
		<path d="M255.564,83.498c-5.523,0-10,4.477-10,10v11.093c0,5.523,4.477,10,10,10c5.523,0,10-4.477,10-10V93.498    C265.564,87.975,261.087,83.498,255.564,83.498z" fill="#000000" data-original="#000000" style=""/>
	</g>
</g>
<g xmlns="http://www.w3.org/2000/svg">
	<g>
		<path d="M322.772,197.729H311.68c-5.523,0-10,4.477-10,10s4.477,10,10,10h11.092c5.523,0,10-4.477,10-10    S328.295,197.729,322.772,197.729z" fill="#000000" data-original="#000000" style=""/>
	</g>
</g>
<g xmlns="http://www.w3.org/2000/svg">
	<g>
		<path d="M369.795,197.729h-11.093c-5.523,0-10,4.477-10,10s4.477,10,10,10h11.093c5.523,0,10-4.477,10-10    S375.318,197.729,369.795,197.729z" fill="#000000" data-original="#000000" style=""/>
	</g>
</g>
<g xmlns="http://www.w3.org/2000/svg">
	<g>
		<path d="M340.12,215.714c-5.344,0.321-9.382,5.018-9.382,10.372v10.311c0,5.354,4.038,10.051,9.382,10.372    c5.803,0.348,10.618-4.254,10.618-9.981v-11.093C350.738,219.968,345.923,215.365,340.12,215.714z" fill="#000000" data-original="#000000" style=""/>
	</g>
</g>
<g xmlns="http://www.w3.org/2000/svg">
	<g>
		<path d="M340.738,168.671c-5.523,0-10,4.477-10,10v11.093c0,5.523,4.477,10,10,10c5.523,0,10-4.477,10-10v-11.093    C350.738,173.148,346.261,168.671,340.738,168.671z" fill="#000000" data-original="#000000" style=""/>
	</g>
</g>
<g xmlns="http://www.w3.org/2000/svg">
</g>
<g xmlns="http://www.w3.org/2000/svg">
</g>
<g xmlns="http://www.w3.org/2000/svg">
</g>
<g xmlns="http://www.w3.org/2000/svg">
</g>
<g xmlns="http://www.w3.org/2000/svg">
</g>
<g xmlns="http://www.w3.org/2000/svg">
</g>
<g xmlns="http://www.w3.org/2000/svg">
</g>
<g xmlns="http://www.w3.org/2000/svg">
</g>
<g xmlns="http://www.w3.org/2000/svg">
</g>
<g xmlns="http://www.w3.org/2000/svg">
</g>
<g xmlns="http://www.w3.org/2000/svg">
</g>
<g xmlns="http://www.w3.org/2000/svg">
</g>
<g xmlns="http://www.w3.org/2000/svg">
</g>
<g xmlns="http://www.w3.org/2000/svg">
</g>
<g xmlns="http://www.w3.org/2000/svg">
</g>
</g></svg>
