<?xml version="1.0"?>
<svg xmlns="http://www.w3.org/2000/svg" xmlns:xlink="http://www.w3.org/1999/xlink" xmlns:svgjs="http://svgjs.com/svgjs" version="1.1" width="512" height="512" x="0" y="0" viewBox="0 0 480.039 480.039" style="enable-background:new 0 0 512 512" xml:space="preserve" class=""><g>
<g xmlns="http://www.w3.org/2000/svg">
	<g>
		<g>
			<path d="M232.02,440.025c0,4.418,3.582,8,8,8c22.08-0.026,39.974-17.92,40-40c0-4.418-3.582-8-8-8s-8,3.582-8,8     c0,13.255-10.745,24-24,24C235.601,432.025,232.02,435.606,232.02,440.025z" fill="#ffffff" data-original="#000000" style="" class=""/>
			<path d="M440.02,248.025c-4.418,0-8,3.582-8,8c0,13.255-10.745,24-24,24c-4.418,0-8,3.582-8,8s3.582,8,8,8     c22.08-0.026,39.974-17.92,40-40C448.02,251.606,444.438,248.025,440.02,248.025z" fill="#ffffff" data-original="#000000" style="" class=""/>
			<path d="M64.02,336.025c0,4.418,3.582,8,8,8c22.08-0.026,39.974-17.92,40-40c0-4.418-3.582-8-8-8s-8,3.582-8,8     c0,13.255-10.745,24-24,24C67.601,328.025,64.02,331.606,64.02,336.025z" fill="#ffffff" data-original="#000000" style="" class=""/>
			<path d="M475.902,231.995c-7.249-20.504-23.378-36.633-43.882-43.882v-20.088c0-4.418-3.582-8-8-8h-8v-120h56     c4.418,0,8-3.582,8-8v-24c0-4.418-3.582-8-8-8h-464c-4.418,0-8,3.582-8,8v24c0,4.418,3.582,8,8,8h56v168h-8c-4.418,0-8,3.582-8,8     v20.088c-37.49,13.255-57.137,54.392-43.882,91.882c13.255,37.49,54.392,57.137,91.882,43.882s57.137-54.392,43.882-91.882     c-7.249-20.504-23.378-36.633-43.882-43.882v-20.088c0-4.418-3.582-8-8-8h-8v-168h152v272h-8c-4.418,0-8,3.582-8,8v20.088     c-37.49,13.255-57.137,54.392-43.882,91.882c13.255,37.49,54.392,57.137,91.882,43.882c37.49-13.255,57.137-54.392,43.882-91.882     c-7.249-20.504-23.378-36.633-43.882-43.882v-20.088c0-4.418-3.582-8-8-8h-8v-272h152v120h-8c-4.418,0-8,3.582-8,8v20.088     c-37.49,13.255-57.137,54.392-43.882,91.882c13.255,37.49,54.392,57.137,91.882,43.882     C469.51,310.622,489.157,269.485,475.902,231.995z M64.02,224.025h16v8.448c-5.317-0.597-10.683-0.597-16,0V224.025z      M83.036,249.217c0.992,0.192,2,0.312,2.984,0.56c24.734,6.386,42.012,28.702,42,54.248     c-0.018,30.928-25.105,55.985-56.033,55.967c-30.928-0.018-55.985-25.105-55.967-56.033     c0.015-25.502,17.258-47.773,41.944-54.175C66.176,247.746,74.739,247.553,83.036,249.217z M232.02,328.025h16v8.448     c-5.317-0.597-10.683-0.597-16,0V328.025z M251.036,353.217c0.992,0.192,2,0.312,2.984,0.56     c24.734,6.386,42.012,28.702,42,54.248c-0.018,30.928-25.105,55.985-56.033,55.967c-30.928-0.018-55.985-25.105-55.967-56.033     c0.015-25.502,17.258-47.773,41.944-54.175C234.176,351.746,242.739,351.553,251.036,353.217z M16.02,24.025v-8h448v8H16.02z      M400.02,176.025h16v8.448c-5.317-0.597-10.683-0.597-16,0V176.025z M407.987,311.992c-30.928-0.018-55.985-25.105-55.967-56.033     c0.015-25.502,17.258-47.773,41.944-54.174c8.213-2.038,16.775-2.232,25.072-0.568c0.992,0.192,2,0.312,2.984,0.56     c24.734,6.386,42.012,28.702,42,54.248C464.002,286.953,438.915,312.01,407.987,311.992z" fill="#ffffff" data-original="#000000" style="" class=""/>
		</g>
	</g>
</g>
<g xmlns="http://www.w3.org/2000/svg">
</g>
<g xmlns="http://www.w3.org/2000/svg">
</g>
<g xmlns="http://www.w3.org/2000/svg">
</g>
<g xmlns="http://www.w3.org/2000/svg">
</g>
<g xmlns="http://www.w3.org/2000/svg">
</g>
<g xmlns="http://www.w3.org/2000/svg">
</g>
<g xmlns="http://www.w3.org/2000/svg">
</g>
<g xmlns="http://www.w3.org/2000/svg">
</g>
<g xmlns="http://www.w3.org/2000/svg">
</g>
<g xmlns="http://www.w3.org/2000/svg">
</g>
<g xmlns="http://www.w3.org/2000/svg">
</g>
<g xmlns="http://www.w3.org/2000/svg">
</g>
<g xmlns="http://www.w3.org/2000/svg">
</g>
<g xmlns="http://www.w3.org/2000/svg">
</g>
<g xmlns="http://www.w3.org/2000/svg">
</g>
</g></svg>
