<?xml version="1.0"?>
<svg xmlns="http://www.w3.org/2000/svg" xmlns:xlink="http://www.w3.org/1999/xlink" xmlns:svgjs="http://svgjs.com/svgjs" version="1.1" width="512" height="512" x="0" y="0" viewBox="0 0 510 510" style="enable-background:new 0 0 512 512" xml:space="preserve" class=""><g transform="matrix(0.5929664464014994,0,0,0.5929664464014994,104.20058972121615,104.20058972121615)"><g xmlns="http://www.w3.org/2000/svg" id="XMLID_1353_"><path id="XMLID_2026_" d="m112.5 0h30v150h-30z" fill="#000000" data-original="#000000" style="" class=""/><path id="XMLID_1362_" d="m60 465h52.5v45h30v-45h52.5v-60h-135z" fill="#000000" data-original="#000000" style="" class=""/><path id="XMLID_1361_" d="m86.545 201.387c3.946-14.021 8.601-25.192 13.935-33.496-57.369 12.429-100.48 63.575-100.48 124.609 0 30.583 11.103 59.758 30.369 82.5h55.805c-15.959-49.803-13.864-123.045.371-173.613z" fill="#000000" data-original="#000000" style="" class=""/><path id="XMLID_1360_" d="m136.911 375c8.065-19.094 13.089-50.146 13.089-82.5 0-26.134-3.168-53.984-8.691-76.409-5.13-20.831-10.669-30.821-13.809-34.668-3.14 3.847-8.679 13.837-13.809 34.668-5.524 22.425-8.691 50.275-8.691 76.409 0 32.354 5.024 63.406 13.089 82.5z" fill="#000000" data-original="#000000" style="" class=""/><path id="XMLID_1359_" d="m154.52 167.891c5.333 8.304 9.989 19.476 13.935 33.496 14.208 50.475 16.356 123.729.371 173.613h55.805c19.266-22.742 30.369-51.917 30.369-82.5 0-61.034-43.112-112.18-100.48-124.609z" fill="#000000" data-original="#000000" style="" class=""/><path id="XMLID_1358_" d="m367.5 0h30v30h-30z" fill="#000000" data-original="#000000" style="" class=""/><path id="XMLID_1357_" d="m315 345h52.5v45h30v-45h52.5v-60h-135z" fill="#000000" data-original="#000000" style="" class=""/><path id="XMLID_1356_" d="m341.545 81.387c3.946-14.021 8.601-25.192 13.935-33.496-57.369 12.429-100.48 63.575-100.48 124.609 0 30.583 11.103 59.758 30.369 82.5h55.805c-15.959-49.803-13.864-123.045.371-173.613z" fill="#000000" data-original="#000000" style="" class=""/><path id="XMLID_1355_" d="m391.911 255c8.065-19.094 13.089-50.145 13.089-82.5 0-26.134-3.168-53.984-8.691-76.409-5.13-20.831-10.669-30.821-13.809-34.668-3.14 3.847-8.679 13.837-13.809 34.668-5.524 22.425-8.691 50.275-8.691 76.409 0 32.355 5.024 63.406 13.089 82.5z" fill="#000000" data-original="#000000" style="" class=""/><path id="XMLID_1354_" d="m409.52 47.891c23.846 37.127 35.712 140.307 14.306 207.109h55.805c19.266-22.742 30.369-51.917 30.369-82.5 0-61.034-43.112-112.18-100.48-124.609z" fill="#000000" data-original="#000000" style="" class=""/></g></g></svg>
