<?xml version="1.0"?>
<svg xmlns="http://www.w3.org/2000/svg" xmlns:xlink="http://www.w3.org/1999/xlink" xmlns:svgjs="http://svgjs.com/svgjs" version="1.1" width="512" height="512" x="0" y="0" viewBox="0 0 54 56" style="enable-background:new 0 0 512 512" xml:space="preserve" class=""><g><g xmlns="http://www.w3.org/2000/svg" id="Page-1" fill="none" fill-rule="evenodd"><g id="032---Chair" fill="rgb(0,0,0)" fill-rule="nonzero"><path id="Shape" d="m8 51.16c.00005002.3342785-.16693028.6464754-.445.832l-1.89 1.26c-.33092769.2210007-.56047652.5644422-.63812175.9547314-.07764524.3902892.00297712.795437.22412175 1.1262686.47306766.679371 1.40006395.8604319 2.094.409l2.99-1.994c.4161531-.2788589.665633-.7470556.665-1.248v-2.379c-1.01366194-.0895995-2.01750981-.2679498-3-.533z" fill="#000000" data-original="#000000" style="" class=""/><path id="Shape" d="m48.333 53.251-1.888-1.259c-.2780697-.1855246-.44505-.4977215-.445-.832v-1.571c-.982603.2643425-1.9864178.4423523-3 .532v2.379c-.000633.5009444.2488469.9691411.665 1.248l3 2c.6940113.4363946 1.6079941.2551776 2.083-.413.2220012-.3311843.3030154-.7371262.2251473-1.1281558-.0778682-.3910295-.3082111-.7349689-.6401473-.9558442z" fill="#000000" data-original="#000000" style="" class=""/><path id="Shape" d="m10.448 28.615c.3952107.4892375.7228149 1.0294144.974 1.606 6.29-3.178 15.178-3.221 15.578-3.221s9.278.042 15.567 3.215c.2532784-.5784706.5836035-1.1200424.982-1.61-.615-2.222-1-6.2 1.663-11.084 2.062-3.778 2.363-7.957.767-10.646-1.1963941-1.92459225-3.35821-3.03070019-5.619-2.875-2.933571.10857724-5.8258588-.7170904-8.26-2.358-3.0439112-2.1892397-7.1460888-2.1892397-10.19 0-2.4369325 1.64295317-5.3330497 2.46871428-8.27 2.358-2.26079-.15570019-4.42260589.95040775-5.619 2.875-1.6 2.689-1.295 6.868.767 10.646 2.668 4.89 2.277 8.873 1.66 11.094zm4.552-15.615c-.5522847 0-1-.4477153-1-1s.4477153-1 1-1 1 .4477153 1 1-.4477153 1-1 1zm4 5c-.5522847 0-1-.4477153-1-1s.4477153-1 1-1 1 .4477153 1 1-.4477153 1-1 1zm4 5c-.5522847 0-1-.4477153-1-1s.4477153-1 1-1 1 .4477153 1 1-.4477153 1-1 1zm0-10c-.5522847 0-1-.4477153-1-1s.4477153-1 1-1 1 .4477153 1 1-.4477153 1-1 1zm4 5c-.5522847 0-1-.4477153-1-1s.4477153-1 1-1 1 .4477153 1 1-.4477153 1-1 1zm4 5c-.5522847 0-1-.4477153-1-1s.4477153-1 1-1 1 .4477153 1 1-.4477153 1-1 1zm0-10c-.5522847 0-1-.4477153-1-1s.4477153-1 1-1 1 .4477153 1 1-.4477153 1-1 1zm4 5c-.5522847 0-1-.4477153-1-1s.4477153-1 1-1 1 .4477153 1 1-.4477153 1-1 1zm3-6c0-.5522847.4477153-1 1-1s1 .4477153 1 1-.4477153 1-1 1-1-.4477153-1-1zm-28.26-4.1c.8336467-1.32262405 2.3446552-2.05875637 3.9-1.9 3.2991142.10157542 6.5484808-.82292178 9.3-2.646 2.4044423-1.80667111 5.7135577-1.80667111 8.118 0 2.7522207 1.82317461 6.0022501 2.74766161 9.302 2.646 1.5552592-.15827443 3.0660266.57774045 3.9 1.9.941 1.59 1.3 4.812-.8 8.657-1.6405018 2.8541034-2.4506436 6.1099107-2.339 9.4.0130497.264965-.0797199.5242571-.2578904.7208074-.1781705.1965502-.4271394.3142494-.6921096.3271926h-.05c-.5337015.0006411-.973849-.4179392-1-.951-.1310935-3.6568884.7621523-7.2776683 2.579-10.454 1.579-2.893 1.541-5.491.837-6.681-.174-.299-.537-.919-2.177-.919-3.6649829.10128125-7.2729743-.9230421-10.338-2.935-1.7639402-1.4193245-4.2780598-1.4193245-6.042 0-3.065698 2.01211573-6.6743725 3.03643484-10.34 2.935-1.637 0-2 .62-2.179.918-.7 1.191-.743 3.789.837 6.683 1.8181707 3.1773338 2.7121304 6.7995851 2.581 10.458-.0348384.5480208-.4992004.9689596-1.048.95-.2649702-.0129432-.5139391-.1306424-.6921096-.3271926-.1781705-.1965503-.2709401-.4558424-.2578904-.7208074.111964-3.2901231-.6981994-6.546017-2.339-9.4-2.099-3.847-1.742-7.069-.802-8.661z" fill="#000000" data-original="#000000" style="" class=""/><path id="Shape" d="m27 39h15.515c-.4477244-1.9913888-.6209965-4.0346548-.515-6.073.0003377-.2408512.0133557-.4815176.039-.721-5.856-3.153-14.939-3.206-15.039-3.206s-9.19.054-15.048 3.209c.0311732.2625264.0471997.5266305.048.791.1043318 2.0141028-.0686194 4.0329893-.514 6z" fill="#000000" data-original="#000000" style="" class=""/><circle id="Oval" cx="5" cy="33" r="1" fill="#000000" data-original="#000000" style="" class=""/><circle id="Oval" cx="49" cy="33" r="1" fill="#000000" data-original="#000000" style="" class=""/><path id="Shape" d="m49 28c-2.7600532.0033061-4.9966939 2.2399468-5 5-.242 3.336.661 6.643 1.516 9.863.0954164.346574-.0025246.7176944-.2565311.9720535-.2540066.2543591-.6249907.3528147-.9716968.2578791-.346706-.0949356-.615781-.3686533-.7047721-.7169326-.183-.692-.391-1.465-.616-2.376h-31.934c-.227.916-.448 1.743-.616 2.376-.0889911.3482793-.3580661.621997-.70477215.7169326-.34670606.0949356-.71769018-.00352-.97169671-.2578791s-.35194756-.6254795-.25653114-.9720535c.841-3.168 1.759-6.511 1.518-9.79.0245936-2.1775698-1.36305011-4.1206184-3.43077411-4.8039429-2.06772399-.6833244-4.33991662.0502515-5.6177099 1.8136741-1.27779327 1.7634226-1.267273 4.1510746.02601003 5.9031687 1.29328304 1.7520942 3.57185176 2.4656189 5.63347398 1.7641001.52770808-.1632001 1.08779984.1322919 1.25099999.66.16320014.5277081-.13229192 1.0877999-.65999999 1.251-.45988826.1393336-.93203131.2344319-1.41.284-.56129494 1.3110404-.8265934 2.7297213-.777 4.155.02571909.7437291.28890125 1.4596827.751 2.043.48303852.4883628 1.05904563.8749744 1.694 1.137 3.05 1.339 16.197 1.72 19.538 1.72s16.46-.369 19.528-1.715c.6372215-.2624522 1.2152993-.6501044 1.7-1.14.4637967-.5855933.727704-1.3044165.753-2.051.0482114-1.4236539-.2174008-2.8404797-.778-4.15-.4779533-.0491269-.9501066-.1438924-1.41-.283-.3413673-.105572-.6004817-.3852418-.6797373-.7336605s.0333884-.7126533.2955-.9555c.2621117-.2428468.63387-.3274115.9752373-.2218395 1.5533241.5070193 3.2555892.2381232 4.577-.723 1.7396626-1.2802988 2.4605047-3.5329806 1.7872833-5.5853851-.6732213-2.0524044-2.5882857-3.4404669-4.7482833-3.4416149zm-44 8c-1.65685425 0-3-1.3431458-3-3s1.34314575-3 3-3 3 1.3431458 3 3-1.34314575 3-3 3zm10 10c-.5522847 0-1-.4477153-1-1s.4477153-1 1-1 1 .4477153 1 1-.4477153 1-1 1zm8 0c-.5522847 0-1-.4477153-1-1s.4477153-1 1-1 1 .4477153 1 1-.4477153 1-1 1zm8 0c-.5522847 0-1-.4477153-1-1s.4477153-1 1-1 1 .4477153 1 1-.4477153 1-1 1zm8 0c-.5522847 0-1-.4477153-1-1s.4477153-1 1-1 1 .4477153 1 1-.4477153 1-1 1zm10-10c-1.6568542 0-3-1.3431458-3-3s1.3431458-3 3-3 3 1.3431458 3 3-1.3431458 3-3 3z" fill="#000000" data-original="#000000" style="" class=""/></g></g></g></svg>
