<?xml version="1.0" standalone="no"?><svg xmlns="http://www.w3.org/2000/svg" viewBox="0 0 1440 320"><path fill="#FFFFFF" fill-opacity="1" d="M0,32L40,74.7C80,117,160,203,240,245.3C320,288,400,288,480,245.3C560,203,640,117,720,96C800,75,880,117,960,160C1040,203,1120,245,1200,261.3C1280,277,1360,267,1400,261.3L1440,256L1440,320L1400,320C1360,320,1280,320,1200,320C1120,320,1040,320,960,320C880,320,800,320,720,320C640,320,560,320,480,320C400,320,320,320,240,320C160,320,80,320,40,320L0,320Z"></path></svg>